<svg width="1440" height="848" viewBox="0 0 1440 848" fill="none" xmlns="http://www.w3.org/2000/svg">
<g opacity="0.05">
<path d="M-22.3994 -170.451C199.273 -34.9878 317.612 116.114 385.29 232.772C442.235 330.954 445.711 365.961 510.613 446.726C646.764 616.153 891.539 767.175 1025.14 678.976C1093.95 633.552 1082.16 553.583 1123.9 414.212C1160.66 291.511 1240.15 127.829 1441.69 -26.3032" stroke="#0047BB" stroke-width="1.30762" stroke-miterlimit="10"/>
<path d="M-22.9735 -138.239C192.856 -18.4092 310.31 124.431 378.129 233.943C435.904 327.238 445.239 360.575 514.239 440.949C654.008 603.761 883.409 747.109 1016.41 667.13C1088.26 623.918 1084.49 547.304 1131.52 409.685C1172 291.27 1252.9 131.288 1450.92 -21.5648" stroke="#0047BB" stroke-width="1.30762" stroke-miterlimit="10"/>
<path d="M-23.5544 -106.122C186.443 -1.87779 303.134 132.778 370.973 235.133C429.656 323.63 444.648 355.202 517.881 435.18C660.972 591.512 875.657 727.421 1007.71 655.303C1082.74 614.334 1086.72 541.07 1139.15 405.158C1183.18 291.013 1265.66 134.731 1460.13 -16.8623" stroke="#0047BB" stroke-width="1.30762" stroke-miterlimit="10"/>
<path d="M-24.1422 -74.1088C180.052 14.5956 296.104 141.129 363.826 236.269C423.519 320.124 443.986 349.866 521.48 429.417C667.626 579.407 868.208 708.116 998.984 643.493C1077.34 604.779 1088.79 534.845 1146.74 400.629C1194.2 290.723 1278.38 138.146 1469.31 -12.1588" stroke="#0047BB" stroke-width="1.30762" stroke-miterlimit="10"/>
<path d="M-24.74 -42.2014C173.623 31.0137 289.23 149.487 356.681 237.418C417.518 316.727 443.171 344.567 525.101 423.661C674.063 567.48 861.087 689.2 990.29 631.716C1072.1 595.314 1090.72 528.621 1154.35 396.105C1205.09 290.39 1291.11 141.549 1478.52 -7.5162" stroke="#0047BB" stroke-width="1.30762" stroke-miterlimit="10"/>
<path d="M-25.3467 -10.3952C167.211 47.3629 282.544 157.815 349.54 238.562C411.659 313.431 442.283 339.337 528.715 417.921C680.298 555.734 854.239 670.677 981.607 619.961C1066.99 585.959 1092.57 522.387 1161.96 391.592C1215.85 290.005 1303.84 144.94 1487.72 -2.86382" stroke="#0047BB" stroke-width="1.30762" stroke-miterlimit="10"/>
<path d="M-25.946 21.3131C160.814 63.7017 276.079 166.112 342.421 239.703C405.987 310.217 441.342 334.196 532.344 412.196C686.367 544.181 847.657 652.54 972.953 608.237C1062.04 576.739 1094.28 516.121 1169.58 387.082C1226.47 289.561 1316.54 148.32 1496.92 1.7661" stroke="#0047BB" stroke-width="1.30762" stroke-miterlimit="10"/>
<path d="M-26.5869 52.9041C154.385 79.9626 269.804 174.324 335.273 240.836C400.481 307.063 440.26 329.162 535.942 406.471C692.272 532.815 841.26 634.776 964.277 596.539C1057.19 567.669 1095.82 509.784 1177.17 382.571C1236.98 289.046 1329.25 151.655 1506.14 6.38318" stroke="#0047BB" stroke-width="1.30762" stroke-miterlimit="10"/>
<path d="M-27.2198 84.3763C147.977 96.1593 263.773 182.413 328.146 241.949C395.155 303.92 439.144 324.176 539.552 400.753C698.046 521.624 835.036 617.356 955.629 584.856C1052.44 558.766 1097.26 503.365 1184.78 378.056C1247.37 288.439 1341.96 154.977 1515.31 10.9574" stroke="#0047BB" stroke-width="1.30762" stroke-miterlimit="10"/>
<path d="M-27.8614 115.773C141.585 112.335 257.977 190.385 321.028 243.087C390.058 300.792 437.973 319.359 543.164 395.073C703.742 510.655 828.969 600.317 946.993 573.238C1047.81 550.103 1098.56 496.883 1192.38 373.576C1257.66 287.779 1354.67 158.31 1524.51 15.5575" stroke="#0047BB" stroke-width="1.30762" stroke-miterlimit="10"/>
<path d="M-28.5135 147.04C135.15 128.425 252.402 198.148 313.908 244.203C385.167 297.568 436.768 314.655 546.769 389.394C709.364 499.857 823.019 583.589 938.367 561.631C1043.27 541.663 1099.74 490.284 1199.98 369.093C1267.86 287.019 1367.36 161.606 1533.7 20.109" stroke="#0047BB" stroke-width="1.30762" stroke-miterlimit="10"/>
<path d="M-29.1751 178.197C128.734 144.468 247.022 205.678 306.791 245.319C380.48 294.193 435.487 310.067 550.376 383.73C714.936 489.239 817.151 567.173 929.755 550.056C1038.79 533.479 1100.81 483.57 1207.58 364.611C1277.99 286.17 1380.05 164.888 1542.89 24.6469" stroke="#0047BB" stroke-width="1.30762" stroke-miterlimit="10"/>
<path d="M-29.845 209.238C122.322 160.456 241.809 212.942 299.678 246.426C375.98 290.576 434.194 305.618 553.969 378.072C720.463 478.787 811.331 551.024 921.141 538.516C1034.4 525.592 1101.76 476.721 1215.17 360.135C1288.05 285.229 1392.73 168.139 1552.08 29.1787" stroke="#0047BB" stroke-width="1.30762" stroke-miterlimit="10"/>
<path d="M-30.5249 240.161C115.905 176.38 236.708 219.908 292.553 247.524C371.608 286.614 432.864 301.296 557.565 372.434C725.978 468.507 805.535 535.188 912.538 527.006C1030.03 518.021 1102.63 469.74 1222.77 355.654C1298.04 284.18 1405.4 171.377 1561.26 33.6475" stroke="#0047BB" stroke-width="1.30762" stroke-miterlimit="10"/>
<path d="M-31.2137 270.975C109.508 192.257 231.663 226.563 285.464 248.627C367.356 282.212 431.55 297.119 561.18 366.813C731.498 458.403 799.763 519.591 903.969 515.54C1025.72 510.798 1103.42 462.637 1230.38 351.217C1308.02 283.075 1418.09 174.624 1570.45 38.15" stroke="#0047BB" stroke-width="1.30762" stroke-miterlimit="10"/>
<path d="M-31.8909 301.67C103.088 208.07 226.483 248.738 278.382 249.73C363.27 251.349 430.235 293.083 564.802 361.213C737.043 448.427 793.95 504.228 895.394 504.103C1021.4 503.96 1104.14 455.355 1237.97 346.769C1317.95 281.877 1430.76 177.835 1579.64 42.63" stroke="#0047BB" stroke-width="1.30762" stroke-miterlimit="10"/>
<path d="M-33.4882 334.632C95.8454 225.833 221.333 254.27 270.58 252.968C356.897 250.69 428.307 291.497 567.918 358.23C742.273 441.584 787.779 492.25 886.614 495.899C1016.93 500.739 1104.71 451.02 1245.57 345.024C1327.9 283.07 1443.52 183.15 1588.98 48.7056" stroke="#0047BB" stroke-width="1.30762" stroke-miterlimit="10"/>
<path d="M-35.3051 368.318C88.3882 244.147 215.422 259.704 262.596 256.728C350.656 251.178 426.234 290.579 570.922 355.87C747.427 435.497 781.423 481.086 877.749 488.434C1012.35 498.699 1105.2 447.239 1253.14 343.947C1337.84 284.813 1456.3 189.026 1598.37 55.2519" stroke="#0047BB" stroke-width="1.30762" stroke-miterlimit="10"/>
<path d="M-37.1173 402.053C80.9248 262.453 207.741 257.532 254.604 260.394C346.909 266.063 424.171 289.65 573.919 353.341C752.624 429.327 774.926 469.809 868.865 480.736C1007.66 496.866 1105.63 443.065 1260.72 342.676C1347.79 286.314 1469.08 194.787 1607.75 61.6861" stroke="#0047BB" stroke-width="1.30762" stroke-miterlimit="10"/>
<path d="M-38.9242 435.841C73.4566 280.752 200.846 265.426 246.592 263.98C340.645 261.008 422.103 288.727 576.902 350.685C757.843 423.092 768.252 458.44 859.949 472.864C1002.83 495.344 1106.01 438.63 1268.28 341.31C1357.72 287.663 1481.85 200.495 1617.12 68.1049" stroke="#0047BB" stroke-width="1.30762" stroke-miterlimit="10"/>
<path d="M-40.7268 469.68C65.9875 299.043 193.546 273.186 238.573 267.483C333.85 255.401 420.051 287.811 579.888 347.906C763.114 416.792 761.396 446.952 851.018 464.821C997.835 494.078 1106.36 433.857 1275.84 339.809C1367.67 288.854 1494.63 206.116 1626.49 74.4541" stroke="#0047BB" stroke-width="1.30762" stroke-miterlimit="10"/>
</g>
</svg>
