<svg width="1440" height="253" viewBox="0 0 1440 253" fill="none" xmlns="http://www.w3.org/2000/svg">
<path d="M-141.996 763.222C-82.2714 718.595 -31.7767 664.724 7.0612 604.199C98.3316 460.515 66.2975 362.203 128.149 336.809C223.726 297.578 326.862 521.504 542.435 527.044C700.55 531.126 841.566 415.678 874.202 388.935C1001.54 284.701 1004.96 189.835 1105.75 172.23C1179.48 159.281 1209.39 204.454 1328.57 207.636C1411.54 209.849 1480.57 190.209 1526.44 173.005" stroke="white" stroke-opacity="0.06" stroke-miterlimit="10"/>
<path d="M-143.759 752.211C-84.0302 707.571 -33.5282 653.693 5.32277 593.162C96.5913 449.454 64.5591 351.166 126.384 325.774C221.988 286.541 325.123 510.466 540.67 516.009C698.81 520.065 839.825 404.617 872.463 377.897C999.803 273.664 1003.19 178.8 1104.02 161.193C1177.74 148.244 1207.63 193.419 1326.83 196.599C1409.83 198.81 1478.83 179.172 1524.7 161.968" stroke="white" stroke-opacity="0.06" stroke-miterlimit="10"/>
<path d="M-145.522 741.2C-85.7858 696.567 -35.2826 642.687 3.55984 582.151C94.8284 438.442 62.7961 340.154 124.647 314.761C220.146 275.536 323.387 499.453 538.934 504.996C697.047 509.054 838.063 393.605 870.701 366.886C998.038 262.629 1001.46 167.786 1102.25 150.182C1175.97 137.233 1205.89 182.429 1325.07 185.611C1408.06 187.823 1477.07 168.185 1522.94 150.98" stroke="white" stroke-opacity="0.06" stroke-miterlimit="10"/>
<path d="M-147.233 730.184C-87.5125 685.536 -37.0201 631.65 1.82011 571.114C93.0886 427.405 61.0564 329.117 122.881 303.726C218.485 264.493 321.621 488.418 537.168 493.961C695.307 498.017 836.323 382.568 868.961 355.849C996.298 251.592 999.69 156.751 1100.51 139.144C1174.23 126.195 1204.12 171.394 1323.33 174.574C1406.32 176.786 1475.33 157.148 1521.2 139.943" stroke="white" stroke-opacity="0.06" stroke-miterlimit="10"/>
<path d="M-149.023 719.175C-89.2945 674.536 -38.7925 620.657 0.0584549 560.126C91.3533 416.416 59.2929 318.106 121.146 292.736C216.723 253.505 319.885 477.429 535.432 482.971C693.572 487.027 834.561 371.581 867.225 344.86C994.536 240.605 997.954 145.762 1098.75 128.157C1172.47 115.208 1202.39 160.405 1321.57 163.587C1404.56 165.798 1473.57 146.137 1519.44 128.956" stroke="white" stroke-opacity="0.06" stroke-miterlimit="10"/>
<path d="M-150.759 708.162C-91.0369 663.516 -40.536 609.639 -1.67745 549.113C89.5911 405.404 57.557 307.093 119.384 281.725C214.908 242.498 318.123 466.417 533.704 472.053C691.817 476.111 832.833 360.663 865.471 333.943C992.808 229.686 996.2 134.846 1097.02 117.239C1170.74 104.29 1200.63 149.488 1319.84 152.669C1402.83 154.88 1471.84 135.218 1517.74 118.036" stroke="white" stroke-opacity="0.06" stroke-miterlimit="10"/>
<path d="M-152.474 697.123C-92.7535 652.473 -42.2694 598.578 -3.44854 538.031C87.8463 394.32 55.7859 296.011 117.639 270.641C213.214 231.386 316.377 455.309 531.923 460.852C690.065 464.932 831.054 349.485 863.718 322.764C991.029 218.509 994.447 123.666 1095.24 106.062C1168.97 93.1125 1198.88 138.309 1318.06 141.491C1401.05 143.679 1470.06 124.041 1515.93 106.86" stroke="white" stroke-opacity="0.06" stroke-miterlimit="10"/>
<path d="M-154.255 686.211C-94.5188 641.578 -44.0156 587.699 -5.17311 527.163C86.0973 383.478 54.0632 285.166 115.888 259.774C211.492 220.541 314.628 444.467 530.201 450.007C688.316 454.089 829.331 338.641 861.967 311.898C989.307 207.665 992.698 112.824 1093.52 95.1933C1167.24 82.2443 1197.16 127.441 1316.33 130.599C1399.3 132.813 1468.31 113.175 1514.21 95.9683" stroke="white" stroke-opacity="0.06" stroke-miterlimit="10"/>
<path d="M-156.026 675.107C-96.2883 630.468 -45.7774 576.589 -6.91824 516.056C84.3521 372.371 52.2917 274.062 114.143 248.668C209.668 209.441 312.882 433.36 528.435 438.975C686.576 443.054 827.566 327.608 860.228 300.863C987.541 196.632 990.957 101.765 1091.75 84.1604C1165.47 71.2113 1195.39 116.384 1314.57 119.567C1397.56 121.778 1466.57 102.14 1512.44 84.9353" stroke="white" stroke-opacity="0.06" stroke-miterlimit="10"/>
<path d="M-157.711 664.09C-97.9942 619.418 -47.5123 565.508 -8.68926 504.95C82.5793 361.241 50.547 262.953 112.398 237.56C207.976 198.329 311.111 422.254 526.685 427.795C684.799 431.876 825.815 316.428 858.451 289.685C985.79 185.452 989.18 90.5873 1090 72.9805C1163.72 60.0315 1193.64 105.204 1312.82 108.387C1395.79 110.6 1464.8 90.9619 1510.69 73.7555" stroke="white" stroke-opacity="0.06" stroke-miterlimit="10"/>
<path d="M-159.496 653.127C-99.7735 608.481 -49.2726 554.604 -10.4141 494.078C80.8544 350.369 48.8222 252.081 110.647 226.69C206.224 187.459 309.387 411.382 524.933 416.925C683.073 420.981 824.062 305.535 856.726 278.813C984.039 174.582 987.455 79.7154 1088.28 62.1086C1161.97 49.1616 1191.89 94.3344 1311.09 97.5147C1394.09 99.7259 1463.1 80.0879 1508.97 62.8836" stroke="white" stroke-opacity="0.06" stroke-miterlimit="10"/>
<path d="M-161.265 642.069C-101.536 597.429 -51.0342 543.551 -12.1832 483.02C79.0853 339.312 47.0531 241.024 108.904 215.63C204.482 176.399 307.617 400.324 523.191 405.865C681.304 409.923 822.319 294.475 854.957 267.756C982.295 163.498 985.686 68.6578 1086.51 51.051C1160.23 38.1019 1190.15 83.2986 1309.33 86.4809C1392.29 88.6941 1461.3 69.0562 1507.2 51.8497" stroke="white" stroke-opacity="0.06" stroke-miterlimit="10"/>
<path d="M-162.948 631.051C-103.232 586.4 -52.7325 532.524 -13.8665 472.003C77.402 328.294 45.3698 230.006 107.195 204.614C202.721 165.411 305.942 389.402 521.428 394.854C679.568 398.91 820.557 283.463 853.222 256.742C980.532 152.487 983.95 57.6443 1084.77 40.0375C1158.47 27.0905 1188.39 72.2871 1307.59 75.4674C1390.59 77.6786 1459.59 58.0168 1505.46 40.8363" stroke="white" stroke-opacity="0.06" stroke-miterlimit="10"/>
<path d="M-164.765 620.044C-105.036 575.405 -54.5343 521.526 -15.6834 460.996C75.5852 317.287 43.5511 218.975 105.404 193.605C200.981 154.374 304.117 378.3 519.69 383.84C677.804 387.898 818.819 272.45 851.431 245.733C978.768 141.476 982.16 46.6351 1082.98 29.0283C1156.7 16.0793 1186.62 61.2759 1305.8 64.4583C1388.77 66.6715 1457.78 47.0097 1503.67 29.8271" stroke="white" stroke-opacity="0.06" stroke-miterlimit="10"/>
<path d="M-166.502 609.031C-106.78 564.385 -56.2791 510.508 -17.4206 449.982C73.8479 306.273 41.8139 207.962 103.641 182.594C199.192 143.365 302.38 367.286 517.925 372.805C676.064 376.861 817.054 261.415 849.718 234.694C977.029 130.439 980.447 35.5959 1081.27 17.9891C1154.97 5.04212 1184.88 50.2387 1304.09 53.419C1387.08 55.6064 1456.09 35.9684 1501.96 18.7879" stroke="white" stroke-opacity="0.06" stroke-miterlimit="10"/>
<path d="M-168.187 597.99C-108.445 553.363 -57.941 499.482 -19.1056 438.941C72.1647 295.256 40.1307 196.945 101.984 171.575C197.48 132.326 300.701 356.317 516.189 361.792C674.304 365.874 815.32 250.426 847.958 223.707C975.295 119.449 978.687 24.6088 1079.51 7.00203C1153.23 -5.94701 1183.15 39.2496 1302.33 42.4319C1385.29 44.6214 1454.3 24.9834 1500.2 7.80073" stroke="white" stroke-opacity="0.06" stroke-miterlimit="10"/>
<path d="M-170.006 586.96C-110.27 542.327 -59.7668 488.447 -20.9244 427.911C70.346 284.226 38.3119 185.915 100.137 160.523C195.714 121.292 298.876 345.215 514.423 350.758C672.564 354.838 813.554 239.392 846.216 212.646C973.529 108.415 976.945 13.5486 1077.77 -4.05823C1151.49 -17.0073 1181.38 28.1677 1300.58 31.348C1383.58 33.5591 1452.59 13.9212 1498.46 -3.28318" stroke="white" stroke-opacity="0.06" stroke-miterlimit="10"/>
<path d="M-171.768 575.972C-112.032 531.339 -61.5292 477.459 -22.6867 416.923C68.5837 273.238 36.5496 174.926 98.4008 149.533C193.952 110.304 297.114 334.227 512.683 339.72C670.798 343.802 811.814 228.354 844.45 201.611C971.789 97.3773 975.179 2.51286 1076 -15.0939C1149.72 -28.043 1179.64 17.1299 1298.82 20.3122C1381.79 22.5254 1450.8 2.88746 1496.69 -14.319" stroke="white" stroke-opacity="0.06" stroke-miterlimit="10"/>
<path d="M-173.426 564.952C-113.697 520.312 -63.1953 466.434 -24.3443 405.903C66.9242 262.195 34.892 163.907 96.7169 138.515C192.211 99.2428 295.458 323.231 510.924 328.756C669.064 332.812 810.079 217.364 842.717 190.645C970.03 86.4135 973.446 -8.45299 1074.27 -26.0598C1147.99 -39.0088 1177.88 6.16605 1297.08 9.34635C1380.08 11.5575 1449.09 -8.08047 1494.96 -25.2848" stroke="white" stroke-opacity="0.06" stroke-miterlimit="10"/>
<path d="M-175.273 553.877C-115.537 509.244 -65.0335 455.365 -26.191 394.829C65.0775 251.12 33.0453 152.832 94.8965 127.438C190.474 88.2074 293.61 312.133 509.183 317.673C667.301 321.803 808.317 206.355 840.955 179.635C968.292 75.3781 971.684 -19.4626 1072.51 -37.0694C1146.23 -50.0184 1176.15 -4.8218 1295.32 -1.63944C1378.29 0.57376 1447.3 -19.0642 1493.2 -36.2706" stroke="white" stroke-opacity="0.06" stroke-miterlimit="10"/>
<path d="M-177.006 542.934C-117.277 498.294 -66.775 444.416 -27.9241 383.885C63.3444 240.176 31.3122 141.889 93.1371 116.497C188.714 77.266 291.877 301.189 507.416 306.637C665.555 310.693 806.571 195.245 839.209 168.525C966.52 64.2703 969.938 -30.5724 1070.76 -48.1792C1144.48 -61.1283 1174.37 -15.9296 1293.58 -12.7493C1376.57 -10.5381 1445.58 -30.1761 1491.45 -47.3805" stroke="white" stroke-opacity="0.06" stroke-miterlimit="10"/>
<path d="M-178.663 531.914C-118.935 487.275 -68.4326 433.396 -29.5816 372.865C61.6869 229.157 29.6528 130.845 91.5059 105.475C186.97 66.1574 290.217 290.146 505.687 295.719C663.8 299.777 804.816 184.328 837.454 157.609C964.791 53.3519 968.183 -41.4887 1069.01 -59.0955C1142.73 -72.0446 1172.64 -26.848 1291.82 -23.6657C1374.79 -21.4525 1443.82 -41.1162 1489.7 -58.2968" stroke="white" stroke-opacity="0.06" stroke-miterlimit="10"/>
<path d="M-180.514 520.793C-120.791 476.147 -70.2906 422.27 -31.432 361.744C59.8365 218.035 27.8024 119.723 89.6291 94.3556C185.206 55.1246 288.369 279.048 503.915 284.591C662.064 288.765 803.08 173.317 835.718 146.598C963.055 42.3408 966.447 -52.4998 1067.27 -70.1066C1140.99 -83.0557 1170.88 -37.857 1290.09 -34.6767C1373.08 -32.4655 1442.09 -52.1273 1487.96 -69.3079" stroke="white" stroke-opacity="0.06" stroke-miterlimit="10"/>
<path d="M-182.271 509.875C-122.536 465.249 -72.0327 411.377 -33.1871 350.85C58.0814 207.141 26.0474 108.829 87.9004 83.4593C183.476 44.2045 286.612 268.13 502.187 273.694C660.3 277.752 801.316 162.304 833.954 135.585C961.291 31.3278 964.709 -63.515 1065.51 -81.1197C1139.23 -94.0687 1169.14 -48.8721 1288.32 -45.6898C1371.29 -43.5004 1440.32 -63.1404 1486.2 -80.3209" stroke="white" stroke-opacity="0.06" stroke-miterlimit="10"/>
<path d="M-183.902 498.857C-124.166 454.224 -73.6629 400.345 -34.8205 339.809C56.4499 196.124 24.4159 97.8121 86.2407 72.4204C181.73 33.0767 284.977 257.065 500.422 262.664C658.563 266.743 799.579 151.295 832.215 124.552C959.554 20.3188 962.946 -74.5219 1063.77 -92.1525C1137.49 -105.102 1167.38 -59.9029 1286.58 -56.7464C1369.58 -54.5352 1438.59 -74.1732 1484.46 -91.3775" stroke="white" stroke-opacity="0.06" stroke-miterlimit="10"/>
<path d="M-185.77 487.854C-126.034 443.221 -75.5311 389.342 -36.6886 328.805C54.5818 185.121 22.5477 86.8089 84.3989 61.4152C179.976 22.1842 283.138 246.108 498.685 251.65C656.8 255.732 797.822 140.355 830.478 113.539C957.791 9.30738 961.207 -85.5592 1062 -103.164C1135.73 -116.113 1165.64 -70.94 1284.82 -67.7577C1367.81 -65.5465 1436.82 -85.1845 1482.69 -102.389" stroke="white" stroke-opacity="0.06" stroke-miterlimit="10"/>
<path d="M-187.508 476.841C-127.779 432.201 -77.2769 378.323 -38.426 317.792C52.8426 174.083 20.8103 75.7956 82.6352 50.4039C178.239 11.1709 281.375 235.096 496.921 240.639C655.063 244.719 796.079 129.27 828.715 102.527C956.054 -1.70595 959.444 -96.5703 1060.27 -114.177C1133.99 -127.126 1163.88 -81.9513 1283.08 -78.771C1366.08 -76.5599 1435.09 -96.1978 1480.96 -113.402" stroke="white" stroke-opacity="0.06" stroke-miterlimit="10"/>
</svg>
