<svg width="24" height="17" viewBox="0 0 24 17" fill="none" xmlns="http://www.w3.org/2000/svg">
<path d="M23.5 2.53247C23.3641 2.0477 23.0994 1.60881 22.734 1.26247C22.3583 0.90547 21.8978 0.650102 21.396 0.520467C19.518 0.0254666 11.994 0.0254667 11.994 0.0254667C8.85734 -0.0102207 5.72144 0.146741 2.60401 0.495467C2.1022 0.63468 1.64257 0.895753 1.26601 1.25547C0.896007 1.61147 0.628007 2.05047 0.488007 2.53147C0.1517 4.34321 -0.0117011 6.18281 6.83166e-06 8.02547C-0.0119932 9.86647 0.151007 11.7055 0.488007 13.5195C0.625007 13.9985 0.892007 14.4355 1.26301 14.7885C1.63401 15.1415 2.09601 15.3965 2.60401 15.5315C4.50701 16.0255 11.994 16.0255 11.994 16.0255C15.1347 16.0612 18.2746 15.9042 21.396 15.5555C21.8978 15.4258 22.3583 15.1705 22.734 14.8135C23.0993 14.4672 23.3637 14.0282 23.499 13.5435C23.8441 11.7324 24.0119 9.89206 24 8.04847C24.026 6.19707 23.8584 4.34803 23.5 2.53147V2.53247ZM9.60201 11.4495V4.60247L15.862 8.02647L9.60201 11.4495Z" fill="#042D88"/>
</svg>
