<svg width="34" height="32" viewBox="0 0 34 32" fill="none" xmlns="http://www.w3.org/2000/svg">
<path d="M18.0757 2.68332C19.7423 1.48332 21.6757 0.883321 23.859 0.883321C25.059 0.883321 26.3757 1.19999 27.809 1.86665C29.2423 2.51665 30.3757 3.28332 31.209 4.16665C32.9257 6.29999 33.6423 8.78332 33.3923 11.6167C33.1257 14.45 32.1923 16.6667 30.5757 18.2333L17.9257 30.8833C17.609 31.2 17.209 31.35 16.7423 31.35C16.2757 31.35 15.8923 31.2 15.5757 30.8833C15.4217 30.7315 15.3008 30.5495 15.2205 30.3487C15.1402 30.148 15.1023 29.9328 15.109 29.7167C15.109 29.25 15.259 28.85 15.5757 28.5333L23.2257 20.8833C23.6423 20.5167 23.6423 20.1333 23.2257 19.7167C22.809 19.3 22.4257 19.3 22.059 19.7167L14.409 27.3667C14.2547 27.522 14.0699 27.6437 13.8663 27.724C13.6626 27.8044 13.4445 27.8416 13.2257 27.8333C12.759 27.8333 12.3757 27.6833 12.059 27.3667C11.9051 27.2148 11.7842 27.0328 11.7039 26.832C11.6236 26.6313 11.5856 26.4161 11.5923 26.2C11.5923 25.7333 11.7423 25.3333 12.059 25.0167L19.709 17.3667C20.159 16.95 20.159 16.5333 19.709 16.1167C19.3257 15.7 18.959 15.7 18.5423 16.1167L10.8923 23.85C10.7363 24.003 10.5512 24.1231 10.348 24.2033C10.1447 24.2834 9.92742 24.322 9.70899 24.3167C9.24233 24.3167 8.84233 24.1667 8.49233 23.85C8.15899 23.5333 7.99233 23.15 7.99233 22.6833C7.99233 22.2167 8.17566 21.8 8.54233 21.4333L16.209 13.7667C16.6257 13.35 16.6257 12.9667 16.209 12.6C15.7923 12.2333 15.3923 12.2333 15.0257 12.6L7.29233 20.2833C6.92566 20.6167 6.54233 20.8 6.12566 20.8C5.65899 20.8 5.25899 20.6333 4.95899 20.2833C4.64233 19.95 4.47566 19.55 4.47566 19.0833C4.47566 18.6167 4.64233 18.2333 4.95899 17.9167C10.059 12.7833 13.209 9.68332 14.409 8.53332L20.3423 14.4C20.9923 15.0167 21.7423 15.3333 22.659 15.3333C23.8257 15.3333 24.7423 14.8667 25.4257 13.9333C25.8923 13.25 26.059 12.5 25.9257 11.6667C25.7923 10.8333 25.4423 10.1333 24.8757 9.54999L18.0757 2.68332ZM21.509 13.2333L14.409 6.11665L2.60899 17.9167C1.20899 16.5 0.408995 14.3333 0.225661 11.3833C0.042328 8.44999 0.842328 5.89999 2.60899 3.76665C4.59233 1.79999 6.95899 0.799988 9.70899 0.799988C12.4757 0.799988 14.8257 1.79999 16.7423 3.76665L23.859 10.8833C24.1757 11.2 24.3257 11.5833 24.3257 12.05C24.3257 12.5167 24.1757 12.9167 23.859 13.2333C23.5423 13.5333 23.159 13.7 22.659 13.7C22.209 13.7 21.8257 13.5333 21.509 13.2333Z" fill="#042D88"/>
</svg>
