<svg width="22" height="34" viewBox="0 0 22 34" fill="none" xmlns="http://www.w3.org/2000/svg">
<path d="M11 0.333313C12.326 0.333313 13.5978 0.860097 14.5355 1.79778C15.4732 2.73546 16 4.00723 16 5.33331C16 6.6594 15.4732 7.93117 14.5355 8.86885C13.5978 9.80653 12.326 10.3333 11 10.3333C9.67388 10.3333 8.40211 9.80653 7.46442 8.86885C6.52674 7.93117 5.99996 6.6594 5.99996 5.33331C5.99996 4.00723 6.52674 2.73546 7.46442 1.79778C8.40211 0.860097 9.67388 0.333313 11 0.333313ZM11 12C13.7166 12 16.2 12.5833 18.5 13.75C20.7333 14.9333 21.8333 16.35 21.8333 18.0166V27.6333C21.8333 29.5 20.4 31.0666 17.4833 32.3166V28.6666C17.4833 27.0833 16.05 25.9666 13.1833 25.2833C12.25 25.0666 11.5166 24.9666 11 24.9666C9.54996 24.9666 8.16663 25.25 6.89996 25.8333C5.61663 26.4 4.84996 27.1333 4.59996 28.0166C6.83329 28.9 8.96663 29.35 11 29.35L12.6666 29.1833V33.5667L11 33.6666C8.76875 33.6698 6.56113 33.2101 4.51663 32.3166C1.59996 31.0666 0.166626 29.5 0.166626 27.6333V18.0166C0.166626 16.35 1.26663 14.9333 3.49996 13.75C5.79996 12.5833 8.29996 12 11 12ZM11 15.3333C10.1159 15.3333 9.26806 15.6845 8.64294 16.3096C8.01782 16.9347 7.66663 17.7826 7.66663 18.6666C7.66663 19.5507 8.01782 20.3985 8.64294 21.0237C9.26806 21.6488 10.1159 22 11 22C11.884 22 12.7319 21.6488 13.357 21.0237C13.9821 20.3985 14.3333 19.5507 14.3333 18.6666C14.3333 17.7826 13.9821 16.9347 13.357 16.3096C12.7319 15.6845 11.884 15.3333 11 15.3333Z" fill="#042D88"/>
</svg>
