<svg width="36" height="30" viewBox="0 0 36 30" fill="none" xmlns="http://www.w3.org/2000/svg">
<path d="M18 0.00500488C17.344 0.00500487 16.6945 0.134204 16.0885 0.385226C15.4825 0.636249 14.9318 1.00418 14.468 1.46801C14.0042 1.93183 13.6362 2.48248 13.3852 3.0885C13.1342 3.69452 13.005 4.34405 13.005 5C13.005 5.65596 13.1342 6.30549 13.3852 6.91151C13.6362 7.51753 14.0042 8.06817 14.468 8.532C14.9318 8.99583 15.4825 9.36376 16.0885 9.61478C16.6945 9.86581 17.344 9.995 18 9.995C19.3248 9.995 20.5953 9.46875 21.532 8.532C22.4687 7.59526 22.995 6.32476 22.995 5C22.995 3.67525 22.4687 2.40475 21.532 1.46801C20.5953 0.531262 19.3248 0.00500488 18 0.00500488ZM29.25 2.5C28.2554 2.5 27.3016 2.89509 26.5983 3.59835C25.8951 4.30162 25.5 5.25544 25.5 6.25C25.5 7.24457 25.8951 8.19839 26.5983 8.90166C27.3016 9.60492 28.2554 10 29.25 10C30.2446 10 31.1984 9.60492 31.9017 8.90166C32.6049 8.19839 33 7.24457 33 6.25C33 5.25544 32.6049 4.30162 31.9017 3.59835C31.1984 2.89509 30.2446 2.5 29.25 2.5ZM6.75 2.5C5.75544 2.5 4.80161 2.89509 4.09835 3.59835C3.39509 4.30162 3 5.25544 3 6.25C3 7.24457 3.39509 8.19839 4.09835 8.90166C4.80161 9.60492 5.75544 10 6.75 10C7.74456 10 8.69839 9.60492 9.40165 8.90166C10.1049 8.19839 10.5 7.24457 10.5 6.25C10.5 5.25544 10.1049 4.30162 9.40165 3.59835C8.69839 2.89509 7.74456 2.5 6.75 2.5ZM10.5 14.9825C10.5046 14.3225 10.7701 13.6911 11.2384 13.226C11.7067 12.761 12.34 12.5 13 12.5H23C23.663 12.5 24.2989 12.7634 24.7678 13.2322C25.2366 13.7011 25.5 14.337 25.5 15V22.5C25.4998 23.2868 25.3767 24.0687 25.135 24.8175C24.5814 26.5143 23.4411 27.9581 21.9188 28.8897C20.3965 29.8214 18.5919 30.1798 16.8291 29.9007C15.0663 29.6215 13.4607 28.7231 12.3007 27.3667C11.1407 26.0103 10.5023 24.2848 10.5 22.5V14.9825ZM8 15C8 14.0875 8.2425 13.235 8.67 12.5H3C2.33696 12.5 1.70107 12.7634 1.23223 13.2322C0.763392 13.7011 0.5 14.337 0.5 15V21.25C0.49966 22.2733 0.750565 23.281 1.23068 24.1846C1.7108 25.0882 2.40544 25.8602 3.25361 26.4326C4.10177 27.005 5.07751 27.3605 6.09514 27.4677C7.11277 27.5749 8.14116 27.4306 9.09 27.0475C8.37045 25.6389 7.9968 24.0792 8 22.4975V15ZM28 15V22.5C28 24.1375 27.6075 25.6825 26.91 27.0475C27.8588 27.4306 28.8872 27.5749 29.9049 27.4677C30.9225 27.3605 31.8982 27.005 32.7464 26.4326C33.5946 25.8602 34.2892 25.0882 34.7693 24.1846C35.2494 23.281 35.5003 22.2733 35.5 21.25V15C35.5 14.337 35.2366 13.7011 34.7678 13.2322C34.2989 12.7634 33.663 12.5 33 12.5H27.33C27.755 13.235 28 14.0875 28 15Z" fill="#042D88"/>
</svg>
