<svg width="22" height="23" viewBox="0 0 22 23" fill="none" xmlns="http://www.w3.org/2000/svg">
<path fill-rule="evenodd" clip-rule="evenodd" d="M6.46524 0.0913906C7.63824 0.0373906 8.01224 0.0253906 11.0002 0.0253906C13.9882 0.0253906 14.3622 0.0383906 15.5342 0.0913906C16.7062 0.144391 17.5062 0.331391 18.2062 0.602391C18.9392 0.879391 19.6042 1.31239 20.1542 1.87239C20.7142 2.42139 21.1462 3.08539 21.4222 3.81939C21.6942 4.51939 21.8802 5.31939 21.9342 6.48939C21.9882 7.66439 22.0002 8.03839 22.0002 11.0254C22.0002 14.0134 21.9872 14.3874 21.9342 15.5604C21.8812 16.7304 21.6942 17.5304 21.4222 18.2304C21.1462 18.9645 20.7135 19.6296 20.1542 20.1794C19.6042 20.7394 18.9392 21.1714 18.2062 21.4474C17.5062 21.7194 16.7062 21.9054 15.5362 21.9594C14.3622 22.0134 13.9882 22.0254 11.0002 22.0254C8.01224 22.0254 7.63824 22.0124 6.46524 21.9594C5.29524 21.9064 4.49524 21.7194 3.79524 21.4474C3.06116 21.1714 2.39606 20.7386 1.84624 20.1794C1.28662 19.6301 0.853559 18.9653 0.577244 18.2314C0.306244 17.5314 0.120244 16.7314 0.0662441 15.5614C0.0122441 14.3864 0.000244141 14.0124 0.000244141 11.0254C0.000244141 8.03739 0.0132441 7.66339 0.0662441 6.49139C0.119244 5.31939 0.306244 4.51939 0.577244 3.81939C0.853967 3.08547 1.28736 2.4207 1.84724 1.87139C2.39628 1.31189 3.06072 0.878834 3.79424 0.602391C4.49424 0.331391 5.29424 0.145391 6.46424 0.0913906H6.46524ZM15.4452 2.07139C14.2852 2.01839 13.9372 2.00739 11.0002 2.00739C8.06324 2.00739 7.71524 2.01839 6.55524 2.07139C5.48224 2.12039 4.90024 2.29939 4.51224 2.45039C3.99924 2.65039 3.63224 2.88739 3.24724 3.27239C2.88229 3.62744 2.60142 4.05967 2.42524 4.53739C2.27424 4.92539 2.09524 5.50739 2.04624 6.58039C1.99324 7.74039 1.98224 8.08839 1.98224 11.0254C1.98224 13.9624 1.99324 14.3104 2.04624 15.4704C2.09524 16.5434 2.27424 17.1254 2.42524 17.5134C2.60124 17.9904 2.88224 18.4234 3.24724 18.7784C3.60224 19.1434 4.03524 19.4244 4.51224 19.6004C4.90024 19.7514 5.48224 19.9304 6.55524 19.9794C7.71524 20.0324 8.06224 20.0434 11.0002 20.0434C13.9382 20.0434 14.2852 20.0324 15.4452 19.9794C16.5182 19.9304 17.1002 19.7514 17.4882 19.6004C18.0012 19.4004 18.3682 19.1634 18.7532 18.7784C19.1182 18.4234 19.3992 17.9904 19.5752 17.5134C19.7262 17.1254 19.9052 16.5434 19.9542 15.4704C20.0072 14.3104 20.0182 13.9624 20.0182 11.0254C20.0182 8.08839 20.0072 7.74039 19.9542 6.58039C19.9052 5.50739 19.7262 4.92539 19.5752 4.53739C19.3752 4.02439 19.1382 3.65739 18.7532 3.27239C18.3982 2.90746 17.9659 2.6266 17.4882 2.45039C17.1002 2.29939 16.5182 2.12039 15.4452 2.07139ZM9.59524 14.4164C10.3799 14.743 11.2536 14.7871 12.0672 14.5411C12.8807 14.2951 13.5836 13.7743 14.0559 13.0676C14.5281 12.361 14.7403 11.5123 14.6563 10.6665C14.5723 9.82073 14.1972 9.03036 13.5952 8.43039C13.2115 8.04687 12.7475 7.7532 12.2366 7.57054C11.7257 7.38787 11.1807 7.32075 10.6407 7.37401C10.1008 7.42726 9.5794 7.59957 9.11405 7.87852C8.6487 8.15747 8.25099 8.53613 7.94955 8.98724C7.64811 9.43835 7.45043 9.95068 7.37076 10.4874C7.29109 11.024 7.3314 11.5717 7.48878 12.0909C7.64617 12.6101 7.91673 13.088 8.28096 13.4901C8.6452 13.8922 9.09407 14.2086 9.59524 14.4164ZM7.00224 7.02739C7.52727 6.50237 8.15056 6.08589 8.83654 5.80175C9.52252 5.51761 10.2577 5.37136 11.0002 5.37136C11.7427 5.37136 12.478 5.51761 13.1639 5.80175C13.8499 6.08589 14.4732 6.50237 14.9982 7.02739C15.5233 7.55242 15.9397 8.17571 16.2239 8.86169C16.508 9.54767 16.6543 10.2829 16.6543 11.0254C16.6543 11.7679 16.508 12.5031 16.2239 13.1891C15.9397 13.8751 15.5233 14.4984 14.9982 15.0234C13.9379 16.0837 12.4998 16.6794 11.0002 16.6794C9.5007 16.6794 8.06258 16.0837 7.00224 15.0234C5.94191 13.9631 5.34622 12.5249 5.34622 11.0254C5.34622 9.52585 5.94191 8.08773 7.00224 7.02739ZM17.9082 6.21339C18.0383 6.09066 18.1425 5.94307 18.2145 5.77936C18.2866 5.61566 18.3251 5.43916 18.3277 5.26032C18.3303 5.08148 18.297 4.90394 18.2297 4.7382C18.1625 4.57246 18.0627 4.4219 17.9362 4.29543C17.8097 4.16896 17.6592 4.06915 17.4934 4.00191C17.3277 3.93467 17.1502 3.90137 16.9713 3.90397C16.7925 3.90658 16.616 3.94504 16.4523 4.01709C16.2886 4.08913 16.141 4.19329 16.0182 4.32339C15.7796 4.57642 15.6489 4.91251 15.6539 5.26032C15.659 5.60813 15.7994 5.94027 16.0454 6.18623C16.2914 6.4322 16.6235 6.57262 16.9713 6.57769C17.3191 6.58276 17.6552 6.45208 17.9082 6.21339Z" fill="#042D88"/>
</svg>
