<svg width="62" height="23" viewBox="0 0 62 23" fill="none" xmlns="http://www.w3.org/2000/svg">
<path d="M0.0712891 10.0013C0.0712891 8.37666 1.38828 7.05966 3.01288 7.05966H5.95447V10.0013C5.95447 11.6258 4.63747 12.9428 3.01288 12.9428H0.0712891V10.0013Z" fill="white"/>
<path d="M0.0712891 19.1202C0.0712891 17.4956 1.38828 16.1786 3.01288 16.1786H5.95447V19.1202C5.95447 20.7448 4.63747 22.0618 3.01288 22.0618H0.0712891V19.1202Z" fill="white"/>
<path d="M6.24863 13.5312C6.24863 11.5816 7.82902 10.0013 9.77853 10.0013H18.015V12.3545C18.015 14.304 16.4346 15.8844 14.4851 15.8844H6.24863V13.5312Z" fill="white"/>
<path d="M6.24863 4.41223C6.24863 2.46272 7.82902 0.882324 9.77853 0.882324H20.9566V3.2356C20.9566 5.18511 19.3762 6.7655 17.4267 6.7655H6.24863V4.41223Z" fill="white"/>
<path d="M26.4382 19.0685V12.1266H24.936V9.99063H26.4382V8.65564C26.4382 7.97925 26.6385 7.43932 27.0391 7.03586C27.4396 6.6324 27.9757 6.43066 28.6473 6.43066H30.3261V8.38864H29.2658C29.0891 8.38864 28.9418 8.44798 28.824 8.56664C28.7062 8.68531 28.6473 8.83364 28.6473 9.01164V9.99063H33.6839V19.0685H31.4748V12.1266H28.6473V19.0685H26.4382ZM31.3865 8.56664V6.43066H33.7723V8.56664H31.3865Z" fill="white"/>
<path d="M41.1959 15.5654H43.4307C43.3472 15.974 43.2102 16.3707 43.0195 16.7553C42.8407 17.1399 42.5904 17.5245 42.2686 17.9091C41.9468 18.2817 41.5118 18.5882 40.9635 18.8286C40.4272 19.057 39.8193 19.1712 39.14 19.1712C37.7932 19.1712 36.6788 18.7265 35.7968 17.837C34.9267 16.9356 34.4917 15.7877 34.4917 14.3935C34.4917 12.9992 34.9267 11.8573 35.7968 10.9679C36.6788 10.0665 37.7932 9.61572 39.14 9.61572C39.8193 9.61572 40.4272 9.73592 40.9635 9.97631C41.5118 10.2047 41.9468 10.5052 42.2686 10.8778C42.5904 11.2504 42.8407 11.623 43.0195 11.9956C43.2102 12.3682 43.3472 12.7468 43.4307 13.1314H41.1959C40.8384 12.1699 40.1531 11.6891 39.14 11.6891C38.4606 11.6891 37.8885 11.9415 37.4237 12.4463C36.9589 12.9511 36.7264 13.6002 36.7264 14.3935C36.7264 15.1867 36.9589 15.8358 37.4237 16.3406C37.8885 16.8454 38.4606 17.0978 39.14 17.0978C40.1888 17.0978 40.8741 16.587 41.1959 15.5654Z" fill="white"/>
<path d="M44.2523 15.3477V9.92383H46.5204V15.1698C46.5204 15.7508 46.7018 16.225 47.0647 16.5925C47.4397 16.9482 47.9236 17.126 48.5163 17.126C49.109 17.126 49.5868 16.9482 49.9497 16.5925C50.3247 16.225 50.5122 15.7508 50.5122 15.1698V9.92383H52.7803V18.9932H50.6937L50.5122 18.1041H50.4215C50.2763 18.2819 50.0707 18.4597 49.8046 18.6376C49.2481 18.9932 48.607 19.171 47.8813 19.171C46.8289 19.171 45.9579 18.8213 45.2684 18.1218C44.591 17.4105 44.2523 16.4858 44.2523 15.3477Z" fill="white"/>
<path d="M53.6023 16.1964H55.732C55.732 16.4728 55.8858 16.7372 56.1934 16.9897C56.5128 17.2421 56.9506 17.3683 57.5067 17.3683C58.6307 17.3683 59.1927 17.0377 59.1927 16.3767C59.1927 16.0882 59.1039 15.8658 58.9265 15.7096C58.749 15.5413 58.4236 15.4211 57.9504 15.349L56.5306 15.1146C54.5784 14.7901 53.6023 13.9187 53.6023 12.5004C53.6023 11.6951 53.9395 11.016 54.6139 10.4631C55.2883 9.89818 56.223 9.61572 57.4179 9.61572C58.6129 9.61572 59.5476 9.94626 60.222 10.6073C60.8964 11.2684 61.2336 11.9295 61.2336 12.5905H59.1039C59.1039 12.2901 58.9501 12.0196 58.6425 11.7792C58.3349 11.5388 57.9267 11.4186 57.4179 11.4186C56.9092 11.4186 56.5128 11.5268 56.2289 11.7432C55.9568 11.9475 55.8207 12.1999 55.8207 12.5004C55.8207 12.9451 56.2348 13.2276 57.063 13.3478L58.5715 13.5821C60.4645 13.8706 61.4111 14.8021 61.4111 16.3767C61.4111 17.182 61.0739 17.849 60.3995 18.3779C59.7369 18.9068 58.7726 19.1712 57.5067 19.1712C56.8678 19.1712 56.2999 19.087 55.8029 18.9188C55.3179 18.7505 54.9392 18.5522 54.6671 18.3238C54.4068 18.0834 54.188 17.813 54.0105 17.5125C53.8448 17.212 53.7324 16.9596 53.6733 16.7553C53.626 16.5389 53.6023 16.3526 53.6023 16.1964Z" fill="white"/>
</svg>
