<svg width="34" height="30" viewBox="0 0 34 30" fill="none" xmlns="http://www.w3.org/2000/svg">
<path d="M26.5434 16.7L20.3334 21.6667H12V20H18.775C18.9258 19.9999 19.0737 19.959 19.203 19.8815C19.3323 19.804 19.4381 19.6929 19.5093 19.56C19.5804 19.4271 19.6142 19.2774 19.607 19.1268C19.5998 18.9763 19.5519 18.8305 19.4684 18.705L17.9884 16.485C17.6848 16.028 17.2728 15.6533 16.7892 15.3942C16.3056 15.135 15.7654 14.9996 15.2167 15H2.00004C1.55801 15 1.13409 15.1756 0.821529 15.4882C0.508969 15.8007 0.333374 16.2246 0.333374 16.6667V26.6667C0.333374 27.5507 0.684563 28.3986 1.30968 29.0237C1.93481 29.6488 2.78265 30 3.66671 30H19.7317C20.4444 30.0002 21.1489 29.848 21.7979 29.5536C22.447 29.2593 23.0256 28.8296 23.495 28.2933L33.6667 16.6667L31.2467 15.86C30.455 15.5961 29.6097 15.5347 28.7881 15.6814C27.9666 15.8281 27.1948 16.1783 26.5434 16.7ZM22.6717 15C23.9978 15 25.2696 14.4732 26.2072 13.5355C27.1449 12.5979 27.6717 11.3261 27.6717 10C27.6717 5.48667 22.6717 0 22.6717 0C22.6717 0 17.6717 5.45167 17.6717 10C17.6717 11.3261 18.1985 12.5979 19.1362 13.5355C20.0739 14.4732 21.3456 15 22.6717 15Z" fill="#042D88"/>
</svg>
